<?xml version="1.0" encoding="utf-8"?>
<!-- Generator: Adobe Illustrator 27.2.0, SVG Export Plug-In . SVG Version: 6.00 Build 0)  -->
<svg version="1.1" id="Слой_1" xmlns="http://www.w3.org/2000/svg" xmlns:xlink="http://www.w3.org/1999/xlink" x="0px" y="0px"
	 viewBox="0 0 1877 842.6" style="enable-background:new 0 0 1877 842.6;" xml:space="preserve">
<style type="text/css">
	.st0{fill:#FFFFFF;stroke:#333366;stroke-miterlimit:10;}
	.st1{fill:none;stroke:#000000;stroke-width:2;stroke-miterlimit:20;stroke-opacity:0.5;}
	.st2{fill:none;stroke:#000000;stroke-width:2;stroke-miterlimit:20;}
	.st3{fill:none;stroke:#000000;stroke-width:4;stroke-miterlimit:20;stroke-opacity:0.9;}
	.st4{fill:none;stroke:#FFFFFF;stroke-width:6;}
	.st5{font-family:'ArialMT';}
	.st6{font-size:40px;}
	.st7{fill:none;stroke:#66CC33;stroke-width:10;stroke-linejoin:round;stroke-miterlimit:10;}
	.st8{fill:none;stroke:#66CC33;stroke-width:10;stroke-linecap:round;stroke-miterlimit:10;}
	.st9{fill:none;stroke:#66CC33;stroke-width:10;stroke-miterlimit:10;}
	.st10{fill:none;stroke:#C74440;stroke-width:10;stroke-linecap:round;stroke-linejoin:round;stroke-miterlimit:20;}
</style>
<g id="background-9065ecc3">
	<path class="st0" d="M-38.3-306.7v2000h2000v-2000H-38.3z M386.4,430.2c0-100.8,81.8-182.6,182.6-182.6v365.2
		C468.2,612.8,386.4,531,386.4,430.2z"/>
</g>
<g id="graphpaper-9065ecc3">
	<g id="grid-9065ecc3">
		<g>
			<path class="st1" d="M29-305.2v2000"/>
			<path class="st1" d="M103-305.2v2000"/>
			<path class="st1" d="M177-305.2v2000"/>
			<path class="st1" d="M251-305.2v2000"/>
			<path class="st1" d="M325-305.2v2000"/>
			<path class="st1" d="M399-305.2v2000"/>
			<path class="st1" d="M473-305.2v2000"/>
			<path class="st1" d="M547-305.2v2000"/>
			<path class="st1" d="M621-305.2v2000"/>
			<path class="st1" d="M695-305.2v2000"/>
			<path class="st1" d="M769-305.2v2000"/>
			<path class="st1" d="M843-305.2v2000"/>
			<path class="st1" d="M917-305.2v2000"/>
			<path class="st1" d="M1063-305.2v2000"/>
			<path class="st1" d="M1137-305.2v2000"/>
			<path class="st1" d="M1211-305.2v2000"/>
			<path class="st1" d="M1285-305.2v2000"/>
			<path class="st1" d="M1359-305.2v2000"/>
			<path class="st1" d="M1433-305.2v2000"/>
			<path class="st1" d="M1507-305.2v2000"/>
			<path class="st1" d="M1581-305.2v2000"/>
			<path class="st1" d="M1655-305.2v2000"/>
			<path class="st1" d="M1729-305.2v2000"/>
			<path class="st1" d="M1803-305.2v2000"/>
			<path class="st1" d="M1877-305.2v2000"/>
			<path class="st1" d="M0,799.8h2000"/>
			<path class="st1" d="M0,725.8h2000"/>
			<path class="st1" d="M0,651.8h2000"/>
			<path class="st1" d="M0,577.8h2000"/>
			<path class="st1" d="M0,503.8h2000"/>
			<path class="st1" d="M0,355.8h2000"/>
			<path class="st1" d="M0,281.8h2000"/>
			<path class="st1" d="M0,207.8h2000"/>
			<path class="st1" d="M0,133.8h2000"/>
			<path class="st1" d="M0,59.8h2000"/>
			<path class="st2" d="M251-305.2v2000"/>
			<path class="st2" d="M621-305.2v2000"/>
			<path class="st2" d="M1359-305.2v2000"/>
			<path class="st2" d="M1729-305.2v2000"/>
			<path class="st2" d="M0,799.8h2000"/>
			<path class="st2" d="M0,59.8h2000"/>
		</g>
	</g>
	<g id="axis-9065ecc3">
		<g id="yaxis-9065ecc3">
			<g>
				<path class="st3" d="M990-305.2v2000"/>
			</g>
		</g>
		<g id="xaxis-9065ecc3">
			<g>
				<path class="st3" d="M0,430.8h2000"/>
			</g>
		</g>
		<g>
			<g>
				<text transform="matrix(1 0 0 1 957.8086 471.0663)" class="st4 st5 st6">0</text>
				<text transform="matrix(1 0 0 1 957.8086 471.0663)" class="st5 st6">0</text>
			</g>
			<g>
				<text transform="matrix(1 0 0 1 226.2529 471.0663)" class="st4 st5 st6">-1</text>
				<text transform="matrix(1 0 0 1 226.2529 471.0663)" class="st5 st6">-1</text>
			</g>
			<g>
				<text transform="matrix(1 0 0 1 579.2524 471.0663)" class="st4 st5 st6">-0.5</text>
				<text transform="matrix(1 0 0 1 579.2524 471.0663)" class="st5 st6">-0.5</text>
			</g>
			<g>
				<text transform="matrix(1 0 0 1 1331.9316 471.0663)" class="st4 st5 st6">0.5</text>
				<text transform="matrix(1 0 0 1 1331.9316 471.0663)" class="st5 st6">0.5</text>
			</g>
			<g>
				<text transform="matrix(1 0 0 1 1718.29 471.0663)" class="st4 st5 st6">1</text>
				<text transform="matrix(1 0 0 1 1718.29 471.0663)" class="st5 st6">1</text>
			</g>
			<g>
				<text transform="matrix(1 0 0 1 911.1289 810.746)" class="st4 st5 st6">-0.5</text>
				<text transform="matrix(1 0 0 1 911.1289 810.746)" class="st5 st6">-0.5</text>
			</g>
			<g>
				<text transform="matrix(1 0 0 1 924.4492 71.3876)" class="st4 st5 st6">0.5</text>
				<text transform="matrix(1 0 0 1 924.4492 71.3876)" class="st5 st6">0.5</text>
			</g>
		</g>
	</g>
</g>
<path class="st7" d="M569,247.6v365.2c-100.8,0-182.6-81.8-182.6-182.6S468.2,247.6,569,247.6z"/>
<line class="st8" x1="569" y1="247.6" x2="990.7" y2="430.7"/>
<line class="st9" x1="569" y1="612.8" x2="990.7" y2="430.7"/>
<path class="st10" d="M990.7,429.7l71.3-51.1l38.6-26l33.2-20.7l29.8-17l27.8-14.4l26.4-12.2l25.4-10.3l24.4-8.5l23.4-6.7l22.9-5.2
	l22-3.7l21.5-2.3l21-0.9l20,0.4l19.5,1.7l18.6,2.9l18.1,4.2l17.1,5.3l16.1,6.3l15.1,7.3l14.6,8.6l13.7,9.6l12.7,10.6l11.2,11.2
	l10.3,12.2l9.3,13.3l7.3,12.9l5.9,12.8l4.4,12.1l3.4,12.5l2.4,13.1l1,8.4l0.6,14"/>
<path class="st10" d="M990.7,430.7l71.3,51.1l38.6,26l33.2,20.7l29.8,17l27.8,14.4l26.4,12.2l25.4,10.3l24.4,8.5l23.4,6.7l22.9,5.2
	l22,3.7l21.5,2.3l21,0.9l20-0.4l19.5-1.7l18.6-2.9l18.1-4.2l17.1-5.3l16.1-6.3l15.1-7.3l14.6-8.6l13.7-9.6l12.7-10.6l11.2-11.2
	l10.3-12.2l9.3-13.3l7.3-12.9l5.9-12.8l4.4-12.1l3.4-12.5l2.4-13.1l1-8.4l0.6-14"/>
</svg>
